<svg width="108" height="22" viewBox="0 0 108 22" fill="none" xmlns="http://www.w3.org/2000/svg">
    <path
        d="M34 17.4345V3.04199H39.1402C40.1408 3.04199 41.0181 3.20648 41.772 3.53545C42.5259 3.85071 43.1153 4.32361 43.5402 4.95414C43.9651 5.58467 44.1776 6.35913 44.1776 7.27751C44.1776 8.19589 43.9583 8.97719 43.5196 9.62143C43.0947 10.252 42.5053 10.7317 41.7514 11.0607C40.9975 11.3759 40.1271 11.5336 39.1402 11.5336H36.3439V17.4345H34ZM36.3439 9.53919H39.0785C40.0791 9.53919 40.7782 9.34043 41.1757 8.94293C41.5869 8.53171 41.7925 7.97657 41.7925 7.27751C41.7925 6.59215 41.5869 6.04386 41.1757 5.63265C40.7782 5.22143 40.0791 5.01582 39.0785 5.01582H36.3439V9.53919Z"
        fill="black" />
    <path
        d="M50.0257 17.6812C49.025 17.6812 48.1272 17.4619 47.3322 17.0233C46.5372 16.5847 45.9067 15.9678 45.4406 15.1728C44.9883 14.3641 44.7621 13.4183 44.7621 12.3355C44.7621 11.2252 45.002 10.2725 45.4817 9.47751C45.9615 8.68249 46.6057 8.07252 47.4144 7.6476C48.2232 7.20897 49.121 6.98966 50.1079 6.98966C51.1085 6.98966 52.0063 7.20897 52.8014 7.6476C53.6101 8.07252 54.2475 8.68249 54.7135 9.47751C55.1933 10.2725 55.4331 11.2252 55.4331 12.3355C55.4331 13.3635 55.2001 14.2819 54.7341 15.0906C54.2817 15.8993 53.6443 16.5367 52.8219 17.0027C52.0132 17.4551 51.0811 17.6812 50.0257 17.6812ZM50.0462 15.6663C50.6356 15.6663 51.1496 15.5224 51.5883 15.2345C52.0406 14.933 52.397 14.5286 52.6574 14.0214C52.9179 13.5143 53.0481 12.9386 53.0481 12.2943C53.0481 11.6227 52.9179 11.0401 52.6574 10.5467C52.397 10.0532 52.0406 9.67626 51.5883 9.41582C51.1496 9.14168 50.6425 9.00461 50.0668 9.00461C49.4637 9.00461 48.9359 9.14853 48.4836 9.43638C48.045 9.72424 47.7091 10.1217 47.4761 10.6289C47.2431 11.1224 47.1266 11.6912 47.1266 12.3355C47.1266 13.0345 47.2568 13.6376 47.5172 14.1448C47.7914 14.6383 48.1478 15.0152 48.5864 15.2756C49.0387 15.5361 49.5253 15.6663 50.0462 15.6663Z"
        fill="black" />
    <path d="M56.9739 17.4345V3.04199H59.2973V17.4345H56.9739Z" fill="black" />
    <path
        d="M62.2935 21.9579L64.5346 16.9822L60.3197 7.23638H62.9103L65.7888 14.5149L68.7701 7.23638H71.2169L64.7402 21.9579H62.2935Z"
        fill="black" />
    <path
        d="M72.2242 17.4345V7.23638H74.4859L74.527 8.51115C74.8697 8.00399 75.3083 7.62704 75.8429 7.38031C76.3775 7.11987 76.96 6.98966 77.5905 6.98966C78.3719 6.98966 79.0778 7.15414 79.7083 7.48311C80.3525 7.79838 80.846 8.29869 81.1887 8.98405C81.5451 8.35352 82.0248 7.86691 82.6279 7.52424C83.2448 7.16785 83.9164 6.98966 84.6429 6.98966C85.4379 6.98966 86.1438 7.15414 86.7606 7.48311C87.3912 7.79838 87.8846 8.28498 88.241 8.94293C88.5974 9.60087 88.7756 10.4302 88.7756 11.4308V17.4345H86.4728V11.7392C86.4728 10.8756 86.274 10.204 85.8765 9.72424C85.4927 9.24448 84.917 9.00461 84.1494 9.00461C83.3681 9.00461 82.7582 9.26505 82.3195 9.78592C81.8809 10.2931 81.6616 10.999 81.6616 11.9037V17.4345H79.3588V11.7392C79.3588 10.8619 79.1532 10.1903 78.742 9.72424C78.3444 9.24448 77.7687 9.00461 77.0149 9.00461C76.3432 9.00461 75.7606 9.24448 75.2672 9.72424C74.7874 10.1903 74.5476 10.9168 74.5476 11.9037V17.4345H72.2242Z"
        fill="black" />
    <path
        d="M95.3415 17.6812C94.3135 17.6812 93.4157 17.4551 92.6481 17.0027C91.8805 16.5367 91.2774 15.9062 90.8387 15.1112C90.4138 14.3024 90.2014 13.3772 90.2014 12.3355C90.2014 11.2526 90.4138 10.3136 90.8387 9.51863C91.2774 8.72361 91.8805 8.10679 92.6481 7.66816C93.4294 7.21582 94.3341 6.98966 95.3621 6.98966C96.3627 6.98966 97.2331 7.20897 97.9733 7.6476C98.7135 8.07252 99.2961 8.66193 99.721 9.41582C100.146 10.1697 100.358 11.0264 100.358 11.9859C100.358 12.1778 100.352 12.3492 100.338 12.4999C100.338 12.6507 100.324 12.8152 100.297 12.9934H92.5453C92.5864 13.528 92.7235 14.0077 92.9565 14.4326C93.1895 14.8439 93.5048 15.166 93.9023 15.399C94.3135 15.632 94.7795 15.7485 95.3004 15.7485C95.8624 15.7485 96.3353 15.6252 96.7191 15.3784C97.1166 15.1317 97.425 14.7753 97.6443 14.3093H100.091C99.8992 14.9261 99.5908 15.4881 99.1658 15.9953C98.7546 16.5024 98.2269 16.9136 97.5827 17.2289C96.9521 17.5305 96.2051 17.6812 95.3415 17.6812ZM92.5658 11.3691H97.9733C97.9596 10.6152 97.6923 10.0189 97.1714 9.58031C96.6506 9.14168 96.0269 8.92237 95.3004 8.92237C94.6425 8.92237 94.0462 9.12112 93.5116 9.51863C92.9908 9.91614 92.6755 10.533 92.5658 11.3691Z"
        fill="black" />
    <path
        d="M105.599 17.4345C104.558 17.4345 103.763 17.1809 103.214 16.6738C102.666 16.1666 102.392 15.3579 102.392 14.2476V9.18966H100.932V7.23638H102.392V4.76909H104.736V7.23638H107.224V9.18966H104.736V14.2682C104.736 14.7342 104.845 15.0563 105.065 15.2345C105.284 15.399 105.613 15.4812 106.052 15.4812H107.224V17.4345H105.599Z"
        fill="black" />
    <path
        d="M18.5047 1.58405C18.5047 0.732394 19.1951 0.0419922 20.0467 0.0419922C20.8984 0.0419922 21.5888 0.732394 21.5888 1.58405C21.5888 2.4357 20.8984 3.1261 20.0467 3.1261C19.1951 3.1261 18.5047 2.4357 18.5047 1.58405Z"
        fill="#171717" />
    <path
        d="M21.5888 4.66816C21.5888 3.81651 22.2792 3.1261 23.1308 3.1261C23.9825 3.1261 24.6729 3.81651 24.6729 4.66816C24.6729 5.51981 23.9825 6.21022 23.1308 6.21022C22.2792 6.21022 21.5888 5.51981 21.5888 4.66816Z"
        fill="#171717" />
    <path
        d="M24.6729 7.75227C24.6729 6.90062 25.3633 6.21022 26.215 6.21022C27.0666 6.21022 27.757 6.90062 27.757 7.75227C27.757 8.60393 27.0666 9.29433 26.215 9.29433C25.3633 9.29433 24.6729 8.60393 24.6729 7.75227Z"
        fill="#171717" />
    <path
        d="M15.4206 4.66816C15.4206 3.81651 16.111 3.1261 16.9626 3.1261C17.8143 3.1261 18.5047 3.81651 18.5047 4.66816C18.5047 5.51981 17.8143 6.21022 16.9626 6.21022C16.111 6.21022 15.4206 5.51981 15.4206 4.66816Z"
        fill="#171717" />
    <path
        d="M12.3364 7.75227C12.3364 6.90062 13.0268 6.21022 13.8785 6.21022C14.7302 6.21022 15.4206 6.90062 15.4206 7.75227C15.4206 8.60393 14.7302 9.29433 13.8785 9.29433C13.0268 9.29433 12.3364 8.60393 12.3364 7.75227Z"
        fill="#171717" />
    <path
        d="M9.25234 10.8364C9.25234 9.98473 9.94274 9.29433 10.7944 9.29433C11.646 9.29433 12.3364 9.98473 12.3364 10.8364C12.3364 11.688 11.646 12.3784 10.7944 12.3784C9.94274 12.3784 9.25234 11.688 9.25234 10.8364Z"
        fill="#171717" />
    <path
        d="M6.16822 13.9205C6.16822 13.0688 6.85863 12.3784 7.71028 12.3784C8.56193 12.3784 9.25234 13.0688 9.25234 13.9205C9.25234 14.7722 8.56193 15.4626 7.71028 15.4626C6.85863 15.4626 6.16822 14.7722 6.16822 13.9205Z"
        fill="#171717" />
    <path
        d="M3.08411 17.0046C3.08411 16.153 3.77451 15.4626 4.62617 15.4626C5.47782 15.4626 6.16822 16.153 6.16822 17.0046C6.16822 17.8563 5.47782 18.5467 4.62617 18.5467C3.77451 18.5467 3.08411 17.8563 3.08411 17.0046Z"
        fill="#171717" />
    <path
        d="M0 20.0887C0 19.2371 0.690402 18.5467 1.54206 18.5467C2.39371 18.5467 3.08411 19.2371 3.08411 20.0887C3.08411 20.9404 2.39371 21.6308 1.54206 21.6308C0.690402 21.6308 0 20.9404 0 20.0887Z"
        fill="#171717" />
    <path
        d="M6.16822 20.0887C6.16822 19.2371 6.85863 18.5467 7.71028 18.5467C8.56193 18.5467 9.25234 19.2371 9.25234 20.0887C9.25234 20.9404 8.56193 21.6308 7.71028 21.6308C6.85863 21.6308 6.16822 20.9404 6.16822 20.0887Z"
        fill="#171717" />
    <path
        d="M9.25234 17.0046C9.25234 16.153 9.94274 15.4626 10.7944 15.4626C11.646 15.4626 12.3364 16.153 12.3364 17.0046C12.3364 17.8563 11.646 18.5467 10.7944 18.5467C9.94274 18.5467 9.25234 17.8563 9.25234 17.0046Z"
        fill="#171717" />
    <path
        d="M12.3364 13.9205C12.3364 13.0688 13.0268 12.3784 13.8785 12.3784C14.7302 12.3784 15.4206 13.0688 15.4206 13.9205C15.4206 14.7722 14.7302 15.4626 13.8785 15.4626C13.0268 15.4626 12.3364 14.7722 12.3364 13.9205Z"
        fill="#171717" />
    <path
        d="M15.4206 17.0046C15.4206 16.153 16.111 15.4626 16.9626 15.4626C17.8143 15.4626 18.5047 16.153 18.5047 17.0046C18.5047 17.8563 17.8143 18.5467 16.9626 18.5467C16.111 18.5467 15.4206 17.8563 15.4206 17.0046Z"
        fill="#171717" />
    <path
        d="M15.4206 10.8364C15.4206 9.98473 16.111 9.29433 16.9626 9.29433C17.8143 9.29433 18.5047 9.98473 18.5047 10.8364C18.5047 11.688 17.8143 12.3784 16.9626 12.3784C16.111 12.3784 15.4206 11.688 15.4206 10.8364Z"
        fill="#171717" />
    <path
        d="M18.5047 13.9205C18.5047 13.0688 19.1951 12.3784 20.0467 12.3784C20.8984 12.3784 21.5888 13.0688 21.5888 13.9205C21.5888 14.7722 20.8984 15.4626 20.0467 15.4626C19.1951 15.4626 18.5047 14.7722 18.5047 13.9205Z"
        fill="#171717" />
    <path
        d="M21.5888 17.0046C21.5888 16.153 22.2792 15.4626 23.1308 15.4626C23.9825 15.4626 24.6729 16.153 24.6729 17.0046C24.6729 17.8563 23.9825 18.5467 23.1308 18.5467C22.2792 18.5467 21.5888 17.8563 21.5888 17.0046Z"
        fill="#171717" />
    <path
        d="M18.5047 7.75227C18.5047 6.90062 19.1951 6.21022 20.0467 6.21022C20.8984 6.21022 21.5888 6.90062 21.5888 7.75227C21.5888 8.60393 20.8984 9.29433 20.0467 9.29433C19.1951 9.29433 18.5047 8.60393 18.5047 7.75227Z"
        fill="#171717" />
    <path
        d="M21.5888 10.8364C21.5888 9.98473 22.2792 9.29433 23.1308 9.29433C23.9825 9.29433 24.6729 9.98473 24.6729 10.8364C24.6729 11.688 23.9825 12.3784 23.1308 12.3784C22.2792 12.3784 21.5888 11.688 21.5888 10.8364Z"
        fill="#171717" />
    <path
        d="M24.6729 13.9205C24.6729 13.0688 25.3633 12.3784 26.215 12.3784C27.0666 12.3784 27.757 13.0688 27.757 13.9205C27.757 14.7722 27.0666 15.4626 26.215 15.4626C25.3633 15.4626 24.6729 14.7722 24.6729 13.9205Z"
        fill="#171717" />
</svg>
